<?xml version="1.0" standalone="no"?>
<!DOCTYPE svg PUBLIC "-//W3C//DTD SVG 20010904//EN"
 "http://www.w3.org/TR/2001/REC-SVG-20010904/DTD/svg10.dtd">
<svg version="1.0" xmlns="http://www.w3.org/2000/svg"
 width="260.000000pt" height="260.000000pt" viewBox="0 0 260.000000 260.000000"
 preserveAspectRatio="xMidYMid meet">
<metadata>
Created by potrace 1.14, written by Peter Selinger 2001-2017
</metadata>
<g transform="translate(0.000000,260.000000) scale(0.100000,-0.100000)"
fill="#000000" stroke="none">
<path d="M1196 2446 c-87 -37 -133 -81 -176 -171 -25 -52 -28 -71 -27 -140 3
-134 67 -234 187 -293 47 -23 68 -27 140 -27 73 0 93 4 143 28 71 35 121 85
155 157 23 47 27 68 27 145 0 78 -4 97 -27 140 -61 114 -158 176 -288 182 -63
3 -85 0 -134 -21z"/>
<path d="M1183 1619 c-61 -29 -143 -101 -143 -125 0 -8 -4 -14 -8 -14 -17 0
-43 -112 -41 -172 3 -73 14 -108 53 -168 113 -175 363 -201 509 -54 110 110
128 286 44 414 -90 137 -270 188 -414 119z"/>
<path d="M2016 1626 c-82 -34 -128 -77 -174 -161 -23 -44 -27 -61 -27 -140 0
-78 4 -97 28 -147 35 -71 85 -120 160 -158 53 -27 67 -29 145 -27 71 2 96 8
137 29 67 35 122 92 154 158 22 47 26 68 26 145 0 78 -4 97 -27 141 -81 155
-265 225 -422 160z"/>
<path d="M346 771 c-96 -39 -153 -95 -192 -189 -67 -160 9 -348 171 -423 52
-24 71 -27 140 -26 135 3 236 68 295 192 26 54 29 69 27 145 -2 69 -8 94 -29
136 -33 63 -89 118 -153 151 -69 35 -189 42 -259 14z"/>
<path d="M2036 775 c-95 -36 -152 -88 -194 -175 -23 -46 -27 -68 -27 -140 0
-71 4 -94 26 -140 34 -71 90 -126 159 -159 46 -22 69 -26 140 -26 71 0 94 4
140 26 73 35 127 90 161 164 24 53 27 70 25 145 -1 70 -7 94 -28 135 -34 65
-89 120 -152 153 -63 32 -188 40 -250 17z"/>
</g>
</svg>
